{"accessors":[{"bufferView":2,"componentType":5126,"count":1265,"max":[0.28372329473495483,0.41706669330596924,0.28001663088798523],"min":[-0.2900787591934204,0,-0.2913269102573395],"type":"VEC3"},{"bufferView":2,"byteOffset":15180,"componentType":5126,"count":1265,"max":[1,1,1],"min":[-1,-1,-1],"type":"VEC3"},{"bufferView":1,"componentType":5126,"count":1265,"max":[0.9974283576011658,0.9843789935112],"min":[0.013598390854895115,0.007993698120117188],"type":"VEC2"},{"bufferView":0,"componentType":5125,"count":3726,"type":"SCALAR"}],"asset":{"extras":{"author":"Wichean Banchong (https://sketchfab.com/wicheanbanchong1)","license":"SKETCHFAB Standard (https://sketchfab.com/licenses)","source":"https://sketchfab.com/3d-models/krathong-3d-b05295e770fa40998b270a063b357ae5","title":"Krathong 3D"},"generator":"Sketchfab-15.56.0","version":"2.0"},"bufferViews":[{"buffer":0,"byteLength":14904,"name":"floatBufferViews","target":34963},{"buffer":0,"byteLength":10120,"byteOffset":14904,"byteStride":8,"name":"floatBufferViews","target":34962},{"buffer":0,"byteLength":30360,"byteOffset":25024,"byteStride":12,"name":"floatBufferViews","target":34962}],"buffers":[{"byteLength":55384,"uri":"data:application/octet-stream;base64,"}],"extensionsUsed":["KHR_materials_specular"],"images":[{"uri":"data:application/octet-stream;base64,"},{"uri":"data:application/octet-stream;base64,"}],"materials":[{"doubleSided":true,"extensions":{"KHR_materials_specular":{"specularColorFactor":[1,1,1],"specularFactor":1,"specularTexture":{"index":1}}},"name":"Krathong","pbrMetallicRoughness":{"baseColorTexture":{"index":0},"metallicFactor":0.15085760261364606,"roughnessFactor":0.5809511038509831}}],"meshes":[{"name":"Object_0","primitives":[{"attributes":{"NORMAL":1,"POSITION":0,"TEXCOORD_0":2},"indices":3,"material":0,"mode":4}]}],"nodes":[{"children":[1],"matrix":[1,0,0,0,0,2.220446049250313e-16,-1,0,0,1,2.220446049250313e-16,0,0,0,0,1],"name":"Sketchfab_model"},{"children":[2],"name":"root"},{"children":[3],"matrix":[1,0,0,0,0,2.220446049250313e-16,1,0,0,-1,2.220446049250313e-16,0,0,0,0,1],"name":"GLTF_SceneRootNode"},{"children":[4],"matrix":[-0.9733900166609311,0,0.22915469767131558,0,0,1,0,0,-0.22915469767131558,0,-0.9733900166609311,0,0,0,0,1],"name":"Krathong_0"},{"mesh":0,"name":"Object_4"}],"samplers":[{"magFilter":9729,"minFilter":9987,"wrapS":10497,"wrapT":10497}],"scene":0,"scenes":[{"name":"Sketchfab_Scene","nodes":[0]}],"textures":[{"sampler":0,"source":0},{"sampler":0,"source":1}]}